<?xml version="1.0" encoding="UTF-8" standalone="no"?>
<!DOCTYPE svg PUBLIC "-//W3C//DTD SVG 1.1//EN" "http://www.w3.org/Graphics/SVG/1.1/DTD/svg11.dtd">
<svg width="100%" height="100%" viewBox="0 0 12 47" version="1.1" xmlns="http://www.w3.org/2000/svg" xmlns:xlink="http://www.w3.org/1999/xlink" xml:space="preserve" xmlns:serif="http://www.serif.com/" style="fill-rule:evenodd;clip-rule:evenodd;stroke-linejoin:round;stroke-miterlimit:1.41421;">
    <g transform="matrix(1,0,0,1,-49.3862,-31.5731)">
        <g transform="matrix(1,0,0,1,-1190,-2837.68)">
            <g transform="matrix(1,0,0,1,63.7562,-2.30688)">
                <path d="M1185.96,2871.56L1185.96,2889.79C1185.96,2891.75 1185.84,2893.68 1185.61,2895.61C1185.38,2897.53 1185.07,2899.49 1184.69,2901.49L1177.99,2901.49C1177.61,2899.49 1177.3,2897.53 1177.07,2895.61C1176.83,2893.68 1176.72,2891.75 1176.72,2889.79L1176.72,2871.56L1185.96,2871.56ZM1175.63,2913C1175.63,2912.23 1175.78,2911.52 1176.06,2910.86C1176.35,2910.2 1176.74,2909.63 1177.24,2909.14C1177.74,2908.65 1178.33,2908.26 1179.01,2907.97C1179.69,2907.69 1180.44,2907.55 1181.24,2907.55C1182.03,2907.55 1182.76,2907.69 1183.44,2907.97C1184.12,2908.26 1184.72,2908.65 1185.23,2909.14C1185.74,2909.63 1186.14,2910.2 1186.42,2910.86C1186.71,2911.52 1186.85,2912.23 1186.85,2913C1186.85,2913.76 1186.71,2914.48 1186.42,2915.15C1186.14,2915.82 1185.74,2916.4 1185.23,2916.88C1184.72,2917.37 1184.12,2917.76 1183.44,2918.03C1182.76,2918.31 1182.03,2918.45 1181.24,2918.45C1180.44,2918.45 1179.69,2918.31 1179.01,2918.03C1178.33,2917.76 1177.74,2917.37 1177.24,2916.88C1176.74,2916.4 1176.35,2915.82 1176.06,2915.15C1175.78,2914.48 1175.63,2913.76 1175.63,2913Z" style="fill:white;fill-rule:nonzero;"/>
            </g>
        </g>
    </g>
</svg>
