<?xml version="1.0" standalone="no"?>
<!DOCTYPE svg PUBLIC "-//W3C//DTD SVG 20010904//EN"
 "http://www.w3.org/TR/2001/REC-SVG-20010904/DTD/svg10.dtd">
<svg version="1.0" xmlns="http://www.w3.org/2000/svg"
 width="98.000000pt" height="98.000000pt" viewBox="0 0 98.000000 98.000000"
 preserveAspectRatio="xMidYMid meet">
<metadata>
Created by potrace 1.11, written by Peter Selinger 2001-2013
</metadata>
<g transform="translate(0.000000,98.000000) scale(0.100000,-0.100000)"
fill="#000000" stroke="none">
<path d="M106 721 c-2 -3 -3 -104 -3 -225 l0 -218 96 4 c155 7 165 20 166 222
0 199 -14 216 -173 220 -46 2 -84 0 -86 -3z m147 -80 c11 -11 15 -246 4 -274
-4 -10 -17 -17 -31 -17 l-25 0 0 154 c0 153 0 155 21 151 12 -3 26 -9 31 -14z"/>
<path d="M403 721 c-5 -3 -8 -19 -8 -36 1 -26 5 -30 30 -33 17 -2 32 -7 35
-12 3 -4 5 -87 4 -184 l-1 -176 48 0 c27 0 49 5 50 10 0 6 1 89 2 185 l0 175
34 0 c32 0 33 2 33 38 l0 38 -109 0 c-61 1 -114 -2 -118 -5z"/>
<path d="M646 721 c-2 -3 7 -60 19 -126 12 -66 30 -164 39 -217 l18 -98 52 0
53 0 13 73 c7 39 14 81 16 92 2 11 13 70 24 130 12 61 23 119 25 131 4 19 1
21 -38 19 -23 -2 -44 -3 -47 -4 -3 -1 -7 -13 -8 -28 -1 -14 -9 -71 -17 -126
-8 -55 -15 -107 -15 -115 0 -30 -11 -4 -16 39 -3 24 -13 86 -22 138 l-17 95
-38 2 c-20 1 -39 -1 -41 -5z"/>
</g>
</svg>
