<?xml version="1.0" standalone="no"?>
<!DOCTYPE svg PUBLIC "-//W3C//DTD SVG 20010904//EN"
 "http://www.w3.org/TR/2001/REC-SVG-20010904/DTD/svg10.dtd">
<svg version="1.0" xmlns="http://www.w3.org/2000/svg"
 width="768.000000pt" height="768.000000pt" viewBox="0 0 768.000000 768.000000"
 preserveAspectRatio="xMidYMid meet">
<metadata>
Created by potrace 1.11, written by Peter Selinger 2001-2013
</metadata>
<g transform="translate(0.000000,768.000000) scale(0.100000,-0.100000)"
fill="#000000" stroke="none">
<path d="M3840 7674 c-25 -2 -108 -11 -185 -20 -1133 -124 -2142 -742 -2782
-1705 -330 -494 -532 -1056 -610 -1689 -24 -202 -24 -638 0 -840 68 -557 226
-1037 489 -1495 337 -583 830 -1076 1413 -1413 458 -264 936 -420 1495 -489
198 -24 646 -24 845 0 618 76 1169 274 1670 603 420 275 803 653 1082 1066 45
68 79 126 75 130 -4 3 -812 453 -1797 998 -984 545 -1794 995 -1798 999 -5 5
797 459 1781 1010 984 551 1797 1007 1807 1015 17 12 14 19 -47 112 -170 261
-410 538 -640 742 -610 540 -1319 860 -2123 957 -124 15 -578 28 -675 19z"/>
</g>
</svg>
