<?xml version="1.0" encoding="UTF-8" standalone="no"?>
<!DOCTYPE svg PUBLIC "-//W3C//DTD SVG 1.1//EN" "http://www.w3.org/Graphics/SVG/1.1/DTD/svg11.dtd">
<svg width="100%" height="100%" viewBox="0 0 26 48" version="1.1" xmlns="http://www.w3.org/2000/svg" xmlns:xlink="http://www.w3.org/1999/xlink" xml:space="preserve" xmlns:serif="http://www.serif.com/" style="fill-rule:evenodd;clip-rule:evenodd;stroke-linejoin:round;stroke-miterlimit:1.41421;">
    <g transform="matrix(1,0,0,1,-42.022,-31.7765)">
        <g transform="matrix(1,0,0,1,-1540,-2837.04)">
            <g transform="matrix(1,0,0,1,408.082,-2.23354)">
                <path d="M1173.94,2875.8C1174.73,2875.14 1175.59,2874.52 1176.51,2873.95C1177.43,2873.38 1178.43,2872.87 1179.49,2872.43C1180.55,2872 1181.69,2871.66 1182.92,2871.41C1184.14,2871.17 1185.46,2871.05 1186.89,2871.05C1188.88,2871.05 1190.68,2871.31 1192.29,2871.85C1193.89,2872.38 1195.26,2873.14 1196.38,2874.12C1197.51,2875.11 1198.38,2876.3 1198.98,2877.69C1199.59,2879.09 1199.89,2880.63 1199.89,2882.33C1199.89,2883.95 1199.67,2885.34 1199.22,2886.52C1198.78,2887.7 1198.21,2888.73 1197.53,2889.6C1196.85,2890.47 1196.1,2891.22 1195.29,2891.86C1194.47,2892.5 1193.69,2893.09 1192.96,2893.63C1192.23,2894.17 1191.59,2894.71 1191.05,2895.24C1190.5,2895.77 1190.16,2896.37 1190.01,2897.03L1189.12,2901.49L1182.36,2901.49L1181.66,2896.36C1181.49,2895.32 1181.59,2894.41 1181.98,2893.63C1182.36,2892.86 1182.88,2892.16 1183.56,2891.53C1184.22,2890.9 1184.97,2890.31 1185.8,2889.74C1186.63,2889.18 1187.41,2888.57 1188.13,2887.93C1188.85,2887.28 1189.46,2886.55 1189.96,2885.76C1190.46,2884.96 1190.71,2884.01 1190.71,2882.91C1190.71,2881.63 1190.29,2880.62 1189.45,2879.86C1188.61,2879.11 1187.46,2878.73 1185.99,2878.73C1184.87,2878.73 1183.93,2878.85 1183.17,2879.08C1182.42,2879.31 1181.77,2879.58 1181.23,2879.86C1180.69,2880.15 1180.21,2880.41 1179.81,2880.64C1179.41,2880.88 1179,2880.99 1178.6,2880.99C1177.68,2880.99 1177,2880.6 1176.56,2879.81L1173.94,2875.8ZM1179.81,2913C1179.81,2912.23 1179.95,2911.52 1180.24,2910.86C1180.53,2910.2 1180.92,2909.63 1181.42,2909.14C1181.92,2908.65 1182.51,2908.26 1183.19,2907.97C1183.87,2907.69 1184.61,2907.55 1185.42,2907.55C1186.21,2907.55 1186.94,2907.69 1187.62,2907.97C1188.3,2908.26 1188.89,2908.65 1189.4,2909.14C1189.91,2909.63 1190.31,2910.2 1190.6,2910.86C1190.89,2911.52 1191.03,2912.23 1191.03,2913C1191.03,2913.76 1190.89,2914.48 1190.6,2915.15C1190.31,2915.82 1189.91,2916.4 1189.4,2916.88C1188.89,2917.37 1188.3,2917.76 1187.62,2918.03C1186.94,2918.31 1186.21,2918.45 1185.42,2918.45C1184.61,2918.45 1183.87,2918.31 1183.19,2918.03C1182.51,2917.76 1181.92,2917.37 1181.42,2916.88C1180.92,2916.4 1180.53,2915.82 1180.24,2915.15C1179.95,2914.48 1179.81,2913.76 1179.81,2913Z" style="fill:white;fill-rule:nonzero;"/>
            </g>
        </g>
    </g>
</svg>
